<svg version="1.1" id="Layer_1" xmlns="http://www.w3.org/2000/svg" xmlns:xlink="http://www.w3.org/1999/xlink" x="0px" y="0px"
	 width="100%" viewBox="0 0 1300 250" enable-background="new 0 0 1300 250" xml:space="preserve">

<path fill="#207178" opacity="1.000000" stroke="none" 
	d="
M145.149841,110.631454 
	C140.408463,97.817772 135.830673,85.364662 131.252884,72.911560 
	C130.788361,72.927589 130.323837,72.943619 129.859329,72.959648 
	C120.432892,96.727829 111.006462,120.496017 101.311508,144.941284 
	C110.412323,144.941284 118.817734,144.941284 127.605133,144.941284 
	C127.605133,149.668335 127.605133,153.903290 127.605133,159.001312 
	C120.556641,159.001312 113.468727,159.001297 106.380806,159.001312 
	C95.573143,159.001343 95.574547,159.001923 91.507149,169.007965 
	C88.709015,175.891525 85.923599,182.780334 83.100494,189.653641 
	C80.589371,195.767365 75.540359,198.244049 69.090935,196.555069 
	C67.834984,196.226151 66.601112,195.812927 64.329170,195.129303 
	C66.568810,189.360397 68.668877,183.732086 70.929932,178.169174 
	C77.002884,163.227859 83.106705,148.298813 89.268906,133.394104 
	C96.618614,115.617149 104.053604,97.875465 111.427429,80.108452 
	C114.457764,72.806961 117.460548,65.493546 120.404396,58.156872 
	C121.703407,54.919464 124.072784,54.321053 127.381912,53.849487 
	C136.914322,52.491070 141.731094,55.962543 145.063126,65.323204 
	C153.008911,87.645302 162.276993,109.496826 171.016739,131.536148 
	C178.359451,150.052597 185.735611,168.555847 193.027924,187.092102 
	C194.029068,189.636887 194.631210,192.338623 195.586838,195.531540 
	C192.570633,196.102112 190.246704,196.770142 187.886520,196.942886 
	C182.145432,197.363052 179.214966,195.383331 177.036591,190.044968 
	C172.877441,179.852417 168.699066,169.667709 164.326111,158.984955 
	C156.286514,158.984955 148.009995,158.984955 139.372986,158.984955 
	C139.372986,154.273132 139.372986,150.038666 139.372986,145.141083 
	C145.611710,145.141083 151.823990,145.141083 159.138397,145.141083 
	C154.274704,133.127274 149.794067,122.059662 145.149841,110.631454 
z"/>
<path fill="#207178" opacity="1.000000" stroke="none" 
	d="
M736.093811,193.052139 
	C736.380432,197.082108 732.747681,196.293457 730.841431,196.763428 
	C724.812561,198.249710 721.127319,195.112701 721.026550,189.043793 
	C721.010315,188.064301 720.898132,187.086395 720.745972,184.892105 
	C714.147705,192.344467 706.781677,196.918259 697.312134,198.152756 
	C697.312134,193.959442 697.312134,189.884033 697.312134,185.633911 
	C713.766724,179.558090 719.491211,165.993622 720.868042,150.032715 
	C721.852478,138.620850 721.112427,127.264534 715.519348,116.715347 
	C710.343689,106.953377 700.468445,100.893082 689.633728,102.095459 
	C679.147461,103.259178 670.990967,107.614960 666.892212,120.290009 
	C661.655273,136.484909 661.553101,152.723328 667.103699,168.843903 
	C670.172058,177.755447 676.650146,183.232574 685.811340,185.446487 
	C685.811340,189.905060 685.811340,194.034546 685.811340,198.737473 
	C678.983765,198.969940 673.116394,196.625381 667.793396,193.145920 
	C656.141174,185.529419 650.277283,174.115250 648.100891,160.749344 
	C646.964966,153.772919 645.749084,146.594055 646.224609,139.619492 
	C647.004517,128.180557 648.474243,116.792252 654.648376,106.457382 
	C661.413147,95.133766 671.812805,90.467278 684.010498,89.124092 
	C697.490112,87.639763 709.788818,91.186691 721.036926,100.965607 
	C721.036926,96.027489 721.036987,92.105743 721.036926,88.184006 
	C721.036560,75.354218 720.882568,62.520844 721.181763,49.698036 
	C721.233765,47.469307 723.304199,43.363991 724.263000,43.416252 
	C728.217468,43.631805 733.371704,40.263283 736.032593,47.017159 
	C736.068542,96.274841 736.081177,144.663498 736.093811,193.052139 
z"/>
<path fill="#207178" opacity="1.000000" stroke="none" 
	d="
M360.908478,61.947361 
	C361.188599,54.041428 361.226013,54.003799 369.326996,54.001575 
	C382.153381,53.998058 395.020386,53.348507 407.796814,54.146656 
	C427.618530,55.384945 441.537994,64.588203 446.773956,84.527084 
	C451.467987,102.402443 443.030426,121.764549 426.345612,130.595154 
	C420.187561,133.854370 412.783508,134.759308 405.307068,136.923492 
	C405.307068,130.911652 405.307068,126.322639 405.307068,122.658012 
	C410.910492,120.108109 416.462494,118.409584 421.069336,115.307434 
	C429.813904,109.418953 431.490448,100.002502 430.590546,90.381691 
	C429.907959,83.083611 427.354004,75.879723 420.371674,72.137535 
	C416.300812,69.955765 411.440186,68.487946 406.842590,68.206482 
	C397.230377,67.618027 387.557007,68.028206 377.455139,68.028206 
	C377.455139,86.009727 377.455139,103.687439 377.455139,121.961792 
	C382.839172,121.961792 388.086884,121.961792 393.655823,121.961792 
	C393.655823,126.783279 393.655823,131.016891 393.655823,135.846741 
	C388.294678,135.846741 383.052795,135.846741 377.307251,135.846741 
	C377.184753,138.168015 377.013336,139.930649 377.010956,141.693527 
	C376.989746,157.351700 376.999878,173.009903 376.997681,188.668106 
	C376.996674,195.790558 375.627869,197.216766 368.303711,196.933060 
	C365.333832,196.818008 361.748352,197.159180 360.966156,191.969437 
	C360.932068,148.057755 360.920258,105.002556 360.908478,61.947361 
z"/>
<path fill="#207178" opacity="1.000000" stroke="none" 
	d="
M625.966003,123.230560 
	C630.707336,142.738434 630.190552,161.272736 619.249817,178.363953 
	C611.608093,190.301468 602.256287,195.496857 586.338745,198.831467 
	C586.223450,196.531052 586.066284,194.300842 586.012390,192.068130 
	C585.956238,189.741302 585.999817,187.412048 585.999817,184.743652 
	C593.594299,181.745377 600.417175,177.749741 605.095337,170.699005 
	C612.101013,160.140289 612.823486,148.412018 611.582336,136.440125 
	C610.746826,128.380997 608.627808,120.653999 603.094177,114.164276 
	C595.618835,105.397400 584.871643,101.554466 574.382996,103.404610 
	C555.327209,106.765923 548.982056,119.907898 545.952515,137.749603 
	C544.038330,149.022858 546.960876,159.288040 552.075745,169.047058 
	C556.093933,176.713699 562.655884,181.806564 571.018250,183.801468 
	C574.291687,184.582367 575.126953,185.768036 575.021973,188.678558 
	C574.908386,191.824158 574.996277,194.977036 574.996277,199.107178 
	C572.409729,198.740097 570.241211,198.571304 568.136108,198.112244 
	C545.577637,193.192902 534.649719,177.729019 530.108337,156.329041 
	C527.220093,142.718994 529.752380,129.698074 534.148560,116.934906 
	C539.087769,102.595314 558.164856,89.465950 573.405273,88.949249 
	C584.189453,88.583641 594.642639,89.477753 604.181335,94.887573 
	C615.236511,101.157425 621.693542,111.159241 625.966003,123.230560 
z"/>
<path fill="#207178" opacity="1.000000" stroke="none" 
	d="
M850.830444,188.980362 
	C851.292969,196.402420 851.281250,195.343033 844.402466,196.703445 
	C841.920288,197.194366 837.691528,195.688141 836.433716,193.710587 
	C835.034119,191.510132 836.113159,187.733200 834.992065,184.161194 
	C832.605896,186.792221 830.645813,190.084106 827.762024,191.943069 
	C813.096497,201.396667 797.615173,202.039062 782.311340,193.931656 
	C773.789734,189.417236 769.736511,180.957245 768.133057,171.737045 
	C767.120178,165.912369 767.083984,159.875916 767.044617,153.931580 
	C766.919922,135.119064 767.083191,116.304565 766.939209,97.492340 
	C766.905396,93.074242 768.491882,91.094002 772.975891,91.143494 
	C780.692993,91.228683 781.987000,92.015175 781.992798,97.546280 
	C782.012329,116.359596 781.879639,135.174118 782.060547,153.985733 
	C782.133301,161.551956 782.806213,169.069687 786.491333,176.031815 
	C791.254517,185.030563 802.991455,186.608765 809.672546,185.688019 
	C825.161865,183.553375 834.819458,166.754501 834.953918,153.339355 
	C835.135681,135.193787 835.017273,117.045021 834.986023,98.897690 
	C834.979980,95.372688 834.430969,91.753380 839.547607,91.179680 
	C846.990051,90.345207 849.251587,91.476555 850.753906,98.054932 
	C850.403992,100.803528 850.037415,102.782104 850.034424,104.761215 
	C849.995544,130.533661 849.987427,156.306229 850.043701,182.078598 
	C850.048767,184.379745 850.556274,186.679794 850.830444,188.980362 
z"/>
<path fill="#207178" opacity="1.000000" stroke="none" 
	d="
M928.011047,89.000702 
	C935.177673,89.805984 941.956238,90.143036 948.494568,91.576080 
	C953.095398,92.584465 954.405518,101.207527 950.713440,104.223747 
	C949.932922,104.861290 948.249207,104.681229 947.051575,104.474060 
	C938.298584,102.960022 929.758362,101.251770 920.604065,102.787285 
	C904.876892,105.425339 895.762390,114.785141 892.477539,129.459976 
	C889.117859,144.468674 889.805664,159.250381 899.682251,172.487289 
	C906.109924,181.101837 914.605591,185.452011 924.879761,185.819275 
	C931.732117,186.064240 938.694397,184.935760 945.506653,183.811447 
	C948.470581,183.322311 950.800110,182.786423 951.898682,186.127502 
	C953.933289,192.315521 953.199341,194.884720 948.832397,196.374664 
	C945.739868,197.429794 942.517273,198.417770 939.287659,198.705673 
	C919.697754,200.452072 900.941467,198.926590 887.085876,182.489395 
	C880.062561,174.157532 875.333069,164.510498 875.098267,153.393219 
	C874.922363,145.064362 874.526672,136.487274 876.190308,128.425476 
	C879.573547,112.031052 889.095825,99.876030 904.845093,93.107643 
	C912.105164,89.987549 919.621582,88.490982 928.011047,89.000702 
z"/>
<path fill="#207178" opacity="1.000000" stroke="none" 
	d="
M997.840027,175.734116 
	C998.526001,182.580612 1004.291748,187.338089 1012.605896,185.903870 
	C1014.549927,185.568527 1016.514526,185.262192 1018.402161,184.711151 
	C1021.350891,183.850357 1024.380859,182.695114 1025.788696,186.759933 
	C1027.330078,191.209671 1025.743652,194.482605 1021.474304,196.254242 
	C1012.402527,200.018738 1003.317932,200.447403 994.110107,196.614410 
	C987.457886,193.845276 984.318115,188.473572 983.182251,181.842102 
	C982.403748,177.296524 982.078003,172.625702 982.049072,168.007736 
	C981.929016,148.843506 981.998840,129.678070 981.998840,110.513077 
	C981.998840,108.555199 981.998779,106.597328 981.998779,103.998787 
	C976.644775,103.998787 971.859131,103.860748 967.085815,104.044815 
	C963.606018,104.178993 961.667847,103.227501 961.965210,99.316292 
	C962.237427,95.734993 960.731628,91.245361 966.808777,91.215073 
	C971.641479,91.190987 976.474365,91.210220 981.998596,91.210220 
	C981.998596,84.163742 981.968933,77.057411 982.011597,69.951508 
	C982.032043,66.556877 981.087952,62.829227 986.881104,62.891830 
	C996.240784,62.992962 997.719421,63.598793 997.957764,70.176796 
	C998.144836,75.336357 998.002441,80.507866 998.005859,85.674072 
	C998.006836,87.161873 998.005920,88.649666 998.005920,91.209320 
	C1003.350159,91.209320 1008.418274,91.175293 1013.485718,91.217667 
	C1020.290588,91.274582 1020.788269,92.047195 1021.091125,98.502998 
	C1021.304626,103.054321 1019.502380,104.233826 1015.259949,104.088264 
	C1009.630371,103.895134 1003.979431,104.321983 997.963257,105.225189 
	C997.393372,107.613747 997.031128,109.259224 997.027832,110.905426 
	C996.987976,130.550461 996.977905,150.195694 997.037842,169.840622 
	C997.043823,171.805908 997.560364,173.769653 997.840027,175.734116 
z"/>
<path fill="#207178" opacity="1.000000" stroke="none" 
	d="
M231.000366,91.000000 
	C231.000153,124.320816 231.004333,157.141632 230.995651,189.962448 
	C230.994110,195.804642 229.524399,196.999512 222.496048,196.993881 
	C216.357590,196.988953 215.006104,195.749435 215.005035,189.963013 
	C214.996490,143.480743 215.064865,96.998238 214.904724,50.516514 
	C214.887848,45.618824 216.062241,43.684448 221.292175,43.895081 
	C232.227234,44.335484 230.943497,42.864880 230.988297,53.514130 
	C231.040146,65.842552 231.000366,78.171356 231.000366,91.000000 
z"/>
<path fill="#207178" opacity="1.000000" stroke="none" 
	d="
M261.001404,168.000000 
	C261.001434,128.541489 260.998138,89.582970 261.004639,50.624454 
	C261.005768,44.006901 261.025177,44.006901 268.164551,44.001377 
	C276.601410,43.994846 276.995544,44.275387 276.997345,50.982216 
	C277.009583,96.766792 277.004486,142.551376 277.004150,188.335953 
	C277.004089,195.670166 275.082916,197.510223 267.643616,196.941437 
	C265.555115,196.781738 263.509491,196.062057 261.001404,195.500031 
	C261.001404,186.418564 261.001404,177.459290 261.001404,168.000000 
z"/>
<path fill="#207178" opacity="1.000000" stroke="none" 
	d="
M485.299133,103.833488 
	C491.776825,93.176086 500.669952,87.944366 513.121277,88.959747 
	C520.693054,89.577217 525.214050,96.500656 521.537537,103.149780 
	C520.812195,104.461586 517.366333,105.211754 515.488892,104.797829 
	C497.086365,100.740494 487.803497,113.466515 486.353943,126.572937 
	C484.301025,145.134979 484.665039,163.964401 484.001648,182.679764 
	C483.972168,183.511688 483.913055,184.355667 484.010651,185.177048 
	C485.355896,196.499786 481.395477,198.971771 469.202637,195.227722 
	C469.137726,193.832123 469.009644,192.354935 469.009064,190.877686 
	C468.996979,159.724136 469.034424,128.570511 468.947510,97.417198 
	C468.938202,94.092896 469.276642,91.646301 473.277710,91.173561 
	C479.372528,90.453438 481.986572,91.548012 483.056427,95.750671 
	C483.752045,98.483109 484.355530,101.238998 485.299133,103.833488 
z"/>
<path fill="#1F7178" opacity="1.000000" stroke="none" 
	d="
M1219.107422,160.804657 
	C1220.350342,156.454071 1221.781738,152.101715 1223.608032,147.921890 
	C1225.638306,143.274673 1228.028320,138.784622 1230.771606,133.185425 
	C1180.331299,133.185425 1130.904297,133.185425 1081.665039,133.185425 
	C1079.922363,127.311943 1082.935913,126.963074 1086.778442,126.967339 
	C1132.231934,127.017799 1177.685303,126.999199 1223.138794,126.998741 
	C1225.276489,126.998718 1227.414062,126.998734 1230.748169,126.998734 
	C1226.177856,117.435493 1221.997314,108.687668 1217.816650,99.939842 
	C1218.259155,99.551781 1218.701538,99.163727 1219.144043,98.775665 
	C1231.826904,107.753448 1242.125854,119.536194 1254.829224,129.754349 
	C1248.112549,136.055511 1242.119385,141.940445 1235.833496,147.493866 
	C1230.556274,152.156174 1224.937500,156.432053 1219.107422,160.804657 
z"/>
<path fill="#008080" opacity="1.000000" stroke="none" 
	d="
M736.416748,192.772888 
	C736.081177,144.663498 736.068542,96.274841 736.074036,47.416412 
	C736.393860,48.172504 736.958252,49.398140 736.959351,50.624279 
	C737.000366,97.255531 736.990662,143.886841 736.975586,190.518143 
	C736.975403,191.176666 736.821716,191.835129 736.416748,192.772888 
z"/>
<path fill="#008080" opacity="1.000000" stroke="none" 
	d="
M360.584839,62.226204 
	C360.920258,105.002556 360.932068,148.057755 360.926147,191.582703 
	C360.606567,190.826920 360.041962,189.601624 360.040741,188.375763 
	C359.998779,147.077301 360.009247,105.778748 360.024506,64.480217 
	C360.024719,63.821800 360.178894,63.163441 360.584839,62.226204 
z"/>
<path fill="#156A80" opacity="1.000000" stroke="none" 
	d="
M850.890564,188.516083 
	C850.556274,186.679794 850.048767,184.379745 850.043701,182.078598 
	C849.987427,156.306229 849.995544,130.533661 850.034424,104.761215 
	C850.037415,102.782104 850.403992,100.803528 850.716003,98.433212 
	C850.870544,128.045090 850.910583,158.048447 850.890564,188.516083 
z"/>
<path fill="#408080" opacity="1.000000" stroke="none" 
	d="
M997.899048,175.295074 
	C997.560364,173.769653 997.043823,171.805908 997.037842,169.840622 
	C996.977905,150.195694 996.987976,130.550461 997.027832,110.905426 
	C997.031128,109.259224 997.393372,107.613747 997.724609,105.601570 
	C997.892822,128.442139 997.925415,151.649078 997.899048,175.295074 
z"/>
</svg>