<?xml version="1.0" encoding="UTF-8" standalone="no" ?>
<!DOCTYPE svg PUBLIC "-//W3C//DTD SVG 1.1//EN" "http://www.w3.org/Graphics/SVG/1.1/DTD/svg11.dtd">
<svg xmlns="http://www.w3.org/2000/svg" xmlns:xlink="http://www.w3.org/1999/xlink" version="1.1" width="500" height="500" viewBox="0 0 500 500" xml:space="preserve">
<desc>Created with Fabric.js 4.6.0</desc>
<defs>
</defs>
<g transform="matrix(2 0 0 2 0.73 250)" id="6Tp00620w59nr-4dR4PU5"  >
<path style="stroke: rgb(0,139,105); stroke-width: 1; stroke-dasharray: none; stroke-linecap: butt; stroke-dashoffset: 0; stroke-linejoin: miter; stroke-miterlimit: 4; fill: rgb(0,171,105); fill-rule: nonzero; opacity: 1;" vector-effect="non-scaling-stroke"  transform=" translate(-0.12, -3.11)" d="M 0 3.10837 C 0 2.06458 0.07851 1.0281499999999997 0.23327 0 C 0.20797000000000002 1.03307 0.19525 2.06925 0.19525 3.10837 C 0.19525 4.1475 0.20797000000000002 5.183669999999999 0.23327 6.216749999999999 C 0.07851 5.188599999999999 0 4.15217 0 3.1083699999999994 z" stroke-linecap="round" />
</g>
<g transform="matrix(2 0 0 2 499.27 250)" id="-O86K-gWTBT90YWrtR5Y6"  >
<path style="stroke: rgb(0,139,105); stroke-width: 1; stroke-dasharray: none; stroke-linecap: butt; stroke-dashoffset: 0; stroke-linejoin: miter; stroke-miterlimit: 4; fill: rgb(0,171,105); fill-rule: nonzero; opacity: 1;" vector-effect="non-scaling-stroke"  transform=" translate(-0.12, -3.11)" d="M 0.23327 3.10841 C 0.23327 4.15222 0.15476 5.1886600000000005 0 6.21682 C 0.0253 5.183730000000001 0.03802 4.147550000000001 0.03802 3.1084 C 0.03802 2.06926 0.025299999999999996 1.03308 0 -0.000010000000000065512 C 0.15476 1.02816 0.23327 2.0646 0.23327 3.1084 z" stroke-linecap="round" />
</g>
<g transform="matrix(2 0 0 2 250 377.86)" id="2iUD2DNun57-Iy75WAVLW"  >
<path style="stroke: rgb(0,139,105); stroke-width: 1; stroke-dasharray: none; stroke-linecap: butt; stroke-dashoffset: 0; stroke-linejoin: miter; stroke-miterlimit: 4; fill: rgb(0,171,105); fill-rule: nonzero; opacity: 1;" vector-effect="non-scaling-stroke"  transform=" translate(-124.75, -60.84)" d="M 124.75423 121.68387 C 56.90804 121.68387 1.6516300000000115 67.45092 0 0 C 3.97828 26.43018 58.34452 47.39162 124.75423 47.39162 C 191.16391 47.39162 245.53012999999999 26.430190000000003 249.50846 0.000030000000002416982 C 247.85680000000002 67.45093 192.60041 121.68386000000001 124.75423 121.68386000000001 z" stroke-linecap="round" />
</g>
<g transform="matrix(2 0 0 2 250 250)" id="tgv5q6uekfwahRoZnlHLz"  >
<path style="stroke: rgb(0,139,105); stroke-width: 1; stroke-dasharray: none; stroke-linecap: butt; stroke-dashoffset: 0; stroke-linejoin: miter; stroke-miterlimit: 4; fill: rgb(0,151,105); fill-rule: nonzero; opacity: 1;" vector-effect="non-scaling-stroke"  transform=" translate(-124.79, -50.5)" d="M 0 50.5 C 0 49.46087 0.01272 48.4247 0.03802 47.39163 C 4.0163 20.96145 58.382540000000006 0 124.79225000000001 0 C 191.20193 0 245.56815 20.96143 249.54648000000003 47.39159 C 249.57178000000002 48.42468 249.58450000000002 49.460860000000004 249.58450000000002 50.5 C 249.58450000000002 51.53914 249.57178000000002 52.57533 249.54648000000003 53.60842 C 245.56815000000003 80.03858 191.20193000000003 101.00001 124.79225000000002 101.00001 C 58.38254000000002 101.00001 4.0163000000000295 80.03856 0.03802000000001726 53.60839 C 0.012720000000017263 52.57532 1.7263968032921184e-14 51.53914 1.7263968032921184e-14 50.50001 z" stroke-linecap="round" />
</g>
</svg>