<?xml version="1.0" encoding="utf-8"?>
<!-- Generator: Adobe Illustrator 26.1.0, SVG Export Plug-In . SVG Version: 6.00 Build 0)  -->
<!DOCTYPE svg PUBLIC "-//W3C//DTD SVG 1.1//EN" "http://www.w3.org/Graphics/SVG/1.1/DTD/svg11.dtd" [
	<!ENTITY ns_extend "http://ns.adobe.com/Extensibility/1.0/">
	<!ENTITY ns_ai "http://ns.adobe.com/AdobeIllustrator/10.0/">
	<!ENTITY ns_graphs "http://ns.adobe.com/Graphs/1.0/">
	<!ENTITY ns_vars "http://ns.adobe.com/Variables/1.0/">
	<!ENTITY ns_imrep "http://ns.adobe.com/ImageReplacement/1.0/">
	<!ENTITY ns_sfw "http://ns.adobe.com/SaveForWeb/1.0/">
	<!ENTITY ns_custom "http://ns.adobe.com/GenericCustomNamespace/1.0/">
	<!ENTITY ns_adobe_xpath "http://ns.adobe.com/XPath/1.0/">
]>
<svg version="1.1" id="Layer_1" xmlns:x="&ns_extend;" xmlns:i="&ns_ai;" xmlns:graph="&ns_graphs;"
	 xmlns="http://www.w3.org/2000/svg" xmlns:xlink="http://www.w3.org/1999/xlink" x="0px" y="0px" viewBox="0 0 80 80"
	 style="enable-background:new 0 0 80 80;" xml:space="preserve">
<style type="text/css">
	.st0{fill:#00AB69;}
	.st1{fill:url(#XMLID_00000163780311746745262020000009610240737120895924_);}
	.st2{fill:#FFFFFF;}
	.st3{fill:url(#SVGID_1_);}
	.st4{fill:url(#SVGID_00000030464736124651318150000001657233273448339342_);}
	.st5{fill:url(#SVGID_00000000927924610428545150000011432891641452473510_);}
</style>
<metadata>
	<sfw  xmlns="&ns_sfw;">
		<slices></slices>
		<sliceSourceBounds  bottomLeftOrigin="true" height="89.3" width="89.3" x="-4.4" y="-4.8"></sliceSourceBounds>
	</sfw>
</metadata>
<rect x="-4.4" y="-4.5" class="st0" width="89.3" height="89.3"/>
<g>
	
		<linearGradient id="XMLID_00000156568933452241225540000013288100602466017675_" gradientUnits="userSpaceOnUse" x1="-591.1482" y1="278.156" x2="-591.1482" y2="211.0379" gradientTransform="matrix(1 6.000000e-04 6.000000e-04 -1 631.512 285.6629)">
		<stop  offset="0" style="stop-color:#283A97"/>
		<stop  offset="0.208" style="stop-color:#19306A"/>
		<stop  offset="0.4393" style="stop-color:#001F40"/>
		<stop  offset="0.6056" style="stop-color:#000F26"/>
		<stop  offset="0.6888" style="stop-color:#00051B"/>
	</linearGradient>
	
		<path id="XMLID_00000062150867022316208740000008852831312457076651_" style="fill:url(#XMLID_00000156568933452241225540000013288100602466017675_);" d="
		M63.8,49.2c-1.6,8.1-4.5,14.2-7.4,17.3c-5.2,5.3-12.9,7.9-22.8,7.9c-10,0-18.6-4-23.4-11c-4.9-7.2-5.6-16.7-1.9-27
		C12.8,24.1,22.2,14,33.9,8.9c0.7-0.3,1.3-0.6,2-0.8L36.1,8l0,0c5-1.9,10-2.9,15-2.9h0.1c11.7,0,17.6,4.7,20.4,8.6
		c1.5,2.1,2.5,4.5,3.1,7.2C76.9,31.8,68.9,44.3,63.8,49.2z"/>
	<g>
		<path class="st2" d="M69.2,31.9c-1,3.3-2.8,6.8-5.3,9.7c-2.6,3.1-5.3,4-10.2,4l-22.9-0.1c-0.1,0.2-0.2,0.4-0.2,0.5
			c1.1,5.5,6.1,8.8,13.3,8.9c4.6,0,10.4-1.5,14.1-3.4c0,0,0.1,18.1-24.4,18.1c-16.7,0-27.7-12.5-20.8-31.4c4-11,12.4-20.2,23.1-24.8
			c0.6-0.3,1.3-0.5,1.9-0.8l0,0c4.3-1.7,8.9-2.6,13.4-2.6C66.6,10,73.1,19.2,69.2,31.9z M47.2,23.8c-5.8,0-10.9,4.2-13.7,10.9
			l15.9,0.1c0.8-1,1.6-2.4,2.1-4C52.8,26.4,51,23.8,47.2,23.8z"/>
	</g>
	<g id="XMLID_00000138574950282441580400000018358454162073868166_">
		
			<linearGradient id="SVGID_1_" gradientUnits="userSpaceOnUse" x1="54.9205" y1="34.2183" x2="28.9671" y2="18.1719" gradientTransform="matrix(1 0 0 -1 0 82)">
			<stop  offset="0.4636" style="stop-color:#999B9E"/>
			<stop  offset="0.496" style="stop-color:#9EA0A3"/>
			<stop  offset="0.7166" style="stop-color:#BEC0C2"/>
			<stop  offset="0.8922" style="stop-color:#D2D4D5"/>
			<stop  offset="1" style="stop-color:#DADBDC"/>
		</linearGradient>
		<path class="st3" d="M32.4,53.1C35.1,56.2,39.5,58,45,58c3.1,0,6.6-0.6,9.9-1.6c0.2-0.5,0.4-1.1,0.6-1.6
			c-3.7,1.3-7.9,2.1-11.5,2.1C39.1,57,35.1,55.6,32.4,53.1z"/>
	</g>
	<g id="XMLID_00000019657092908379829220000005817198034946749602_">
		
			<linearGradient id="SVGID_00000183238920672446545990000016721252769809415587_" gradientUnits="userSpaceOnUse" x1="10.587" y1="27.3755" x2="56.7811" y2="73.5697" gradientTransform="matrix(1 0 0 -1 0 82)">
			<stop  offset="0.4636" style="stop-color:#999B9E"/>
			<stop  offset="0.496" style="stop-color:#9EA0A3"/>
			<stop  offset="0.7166" style="stop-color:#BEC0C2"/>
			<stop  offset="0.8922" style="stop-color:#D2D4D5"/>
			<stop  offset="1" style="stop-color:#DADBDC"/>
		</linearGradient>
		<path style="fill:url(#SVGID_00000183238920672446545990000016721252769809415587_);" d="M16.9,60.5c-3.6-5.2-4-12.5-1.1-20.6
			c3.9-10.6,11.9-19.2,21.9-23.6c0.6-0.3,1.1-0.5,1.7-0.7l0.2-0.1c4.1-1.6,8.4-2.4,12.5-2.4c5.9,0,10.4,1.4,13.3,4
			c-2.8-3.3-7.7-5-14.4-5.1c-4.1,0-8.4,0.8-12.5,2.4l-0.2,0.1c-0.6,0.2-1.1,0.4-1.7,0.7c-10.1,4.4-18.1,13-21.9,23.6
			c-2.9,8-2.6,15.4,1,20.6c0.6,0.9,1.4,1.8,2.3,2.6C17.6,61.5,17.2,61,16.9,60.5z"/>
	</g>
	<g id="XMLID_00000138545030445669277760000007141469028093712316_">
		
			<linearGradient id="SVGID_00000018204247413513856580000013553876115564050563_" gradientUnits="userSpaceOnUse" x1="57.9339" y1="59.0406" x2="33.9339" y2="37.6918" gradientTransform="matrix(1 0 0 -1 0 82)">
			<stop  offset="0.4636" style="stop-color:#999B9E"/>
			<stop  offset="0.496" style="stop-color:#9EA0A3"/>
			<stop  offset="0.7166" style="stop-color:#BEC0C2"/>
			<stop  offset="0.8922" style="stop-color:#D2D4D5"/>
			<stop  offset="1" style="stop-color:#DADBDC"/>
		</linearGradient>
		<path style="fill:url(#SVGID_00000018204247413513856580000013553876115564050563_);" d="M52.8,24.2L52.8,24.2
			c1,1.3,1.8,3.6,0.7,7.2C52.9,33.2,52,35,51,36.2l-0.6,0.7L32,36.8l-0.4,1.1L51.4,38l0.6-0.7c1-1.2,1.9-2.9,2.5-4.8
			c1.1-3.7,0.3-5.9-0.6-7.2C53.6,24.9,53.2,24.5,52.8,24.2z"/>
	</g>
</g>
</svg>
