<?xml version="1.0" encoding="utf-8"?>
<!-- Generator: Adobe Illustrator 26.1.0, SVG Export Plug-In . SVG Version: 6.00 Build 0)  -->
<!DOCTYPE svg PUBLIC "-//W3C//DTD SVG 1.1//EN" "http://www.w3.org/Graphics/SVG/1.1/DTD/svg11.dtd" [
	<!ENTITY ns_extend "http://ns.adobe.com/Extensibility/1.0/">
	<!ENTITY ns_ai "http://ns.adobe.com/AdobeIllustrator/10.0/">
	<!ENTITY ns_graphs "http://ns.adobe.com/Graphs/1.0/">
	<!ENTITY ns_vars "http://ns.adobe.com/Variables/1.0/">
	<!ENTITY ns_imrep "http://ns.adobe.com/ImageReplacement/1.0/">
	<!ENTITY ns_sfw "http://ns.adobe.com/SaveForWeb/1.0/">
	<!ENTITY ns_custom "http://ns.adobe.com/GenericCustomNamespace/1.0/">
	<!ENTITY ns_adobe_xpath "http://ns.adobe.com/XPath/1.0/">
]>
<svg version="1.1" id="Layer_1" xmlns:x="&ns_extend;" xmlns:i="&ns_ai;" xmlns:graph="&ns_graphs;"
	 xmlns="http://www.w3.org/2000/svg" xmlns:xlink="http://www.w3.org/1999/xlink" x="0px" y="0px" viewBox="0 0 442.9 180.8"
	 style="enable-background:new 0 0 442.9 180.8;" xml:space="preserve">
<style type="text/css">
	.st0{display:none;}
	.st1{display:inline;}
	.st2{fill:url(#SVGID_1_);}
	.st3{display:none;fill:url(#SVGID_00000031909079017675542810000008599718457505898916_);}
	.st4{fill:url(#SVGID_00000047026537420701116000000011456477039329444504_);}
	.st5{fill:url(#XMLID_00000134212638806313340310000008862020337677479049_);}
	.st6{fill:url(#XMLID_00000150068928826624827470000014826890462040980641_);}
	.st7{opacity:0.2;fill:#FFFFFF;enable-background:new    ;}
	.st8{opacity:0.5;fill:#FFFFFF;enable-background:new    ;}
	.st9{opacity:0.75;fill:url(#XMLID_00000027572800798771438340000002215351508224647606_);enable-background:new    ;}
	.st10{fill:url(#XMLID_00000104692971546621237850000013697582294552607362_);}
	.st11{fill:url(#XMLID_00000023959572706756086070000006910540020887809213_);}
	.st12{fill:#FFFFFF;}
	.st13{fill:url(#SVGID_00000139254335278475555440000005827198355049188008_);}
	.st14{fill:#283A97;}
</style>
<metadata>
	<sfw  xmlns="&ns_sfw;">
		<slices></slices>
		<sliceSourceBounds  bottomLeftOrigin="true" height="502.6" width="512.4" x="-77" y="-128.4"></sliceSourceBounds>
	</sfw>
</metadata>
<g id="white_halo_elements" class="st0">
	<g class="st1">
		
			<radialGradient id="SVGID_1_" cx="207.5" cy="92.9" r="220.1" gradientTransform="matrix(1 0 0 -1 0 182)" gradientUnits="userSpaceOnUse">
			<stop  offset="0" style="stop-color:#FFFFFF"/>
			<stop  offset="1" style="stop-color:#FFFFFF;stop-opacity:0"/>
		</radialGradient>
		<circle class="st2" cx="207.5" cy="89.1" r="220.1"/>
		
			<radialGradient id="SVGID_00000067216897933697043810000016057451629211528091_" cx="207.5" cy="92.9" r="163.2" gradientTransform="matrix(1 0 0 -1 0 182)" gradientUnits="userSpaceOnUse">
			<stop  offset="0" style="stop-color:#FFFFFF"/>
			<stop  offset="1" style="stop-color:#FFFFFF;stop-opacity:0"/>
		</radialGradient>
		
			<circle style="display:none;fill:url(#SVGID_00000067216897933697043810000016057451629211528091_);" cx="207.5" cy="89.1" r="163.2"/>
		<g id="XMLID_13_">
			
				<image style="overflow:visible;enable-background:new    ;" width="1321" height="1321" xlink:href="D52910CBE64495F9.png"  transform="matrix(0.2391 0 0 0.2391 48.431 -67.4952)">
			</image>
		</g>
		<g id="XMLID_11_">
			
				<image style="overflow:visible;enable-background:new    ;" width="1879" height="1833" xlink:href="D52910CBE64495FB.png"  transform="matrix(0.2394 0 0 0.2394 -76.9885 -193.4044)">
			</image>
		</g>
		<g id="XMLID_9_">
			
				<radialGradient id="SVGID_00000102539210449342714360000001233029017914824358_" cx="-2194.3037" cy="573.1311" r="166.1216" gradientTransform="matrix(0.9786 0.2059 0.2059 -0.9786 2183.2678 999.8345)" gradientUnits="userSpaceOnUse">
				<stop  offset="0" style="stop-color:#FFFFFF"/>
				<stop  offset="0.6064" style="stop-color:#FFFFFF;stop-opacity:0"/>
			</radialGradient>
			<polygon style="fill:url(#SVGID_00000102539210449342714360000001233029017914824358_);" points="162.1,42.4 158.4,45.9 
				153.9,48.3 148.9,49.3 143.9,48.9 139.1,47 135.1,43.9 132.1,39.8 -30.5,94.9 130.4,35 -41.2,42.1 130.1,29.9 -36.5,-11.6 
				131.3,25 -16.9,-61.8 133.8,20.6 16.1,-104.5 137.4,17 59.7,-136.1 141.9,14.6 110.5,-154.2 146.9,13.6 164.3,-157.2 152,14.1 
				216.8,-144.9 156.7,15.9 263.7,-118.4 160.8,19 301.3,-79.7 163.7,23.2 326.4,-32 165.4,28 337,20.9 165.7,33 164.6,38 			"/>
		</g>
		
			<radialGradient id="XMLID_00000083776181256579063500000015911189055024820920_" cx="-2294.0823" cy="372.1595" r="46.3616" gradientTransform="matrix(0.9486 0.3163 0.3163 -0.9486 2129.2024 1038.7487)" gradientUnits="userSpaceOnUse">
			<stop  offset="0.6799" style="stop-color:#FFFFFF;stop-opacity:0"/>
			<stop  offset="0.9629" style="stop-color:#FFFFFF;stop-opacity:0.25"/>
		</radialGradient>
		<path id="XMLID_8_" style="fill:url(#XMLID_00000083776181256579063500000015911189055024820920_);" d="M114.7-25.2
			C106.6-0.9,80.4,12.2,56.1,4.1S18.7-30.3,26.8-54.6S61.1-92,85.4-83.9S122.8-49.5,114.7-25.2z"/>
		
			<radialGradient id="XMLID_00000038406802281901238610000010004618825058036121_" cx="-2294.1296" cy="372.1436" r="24.9834" gradientTransform="matrix(0.9486 0.3163 0.3163 -0.9486 2129.2024 1038.7487)" gradientUnits="userSpaceOnUse">
			<stop  offset="0.6799" style="stop-color:#FFFFFF;stop-opacity:0"/>
			<stop  offset="0.9578" style="stop-color:#FFFFFF;stop-opacity:0.5"/>
		</radialGradient>
		<path id="XMLID_7_" style="fill:url(#XMLID_00000038406802281901238610000010004618825058036121_);" d="M94.4-32
			C90-18.9,75.9-11.9,62.8-16.2C49.7-20.6,42.7-34.7,47-47.8c4.4-13.1,18.5-20.1,31.6-15.8C91.7-59.2,98.8-45.1,94.4-32z"/>
		<path id="XMLID_6_" class="st7" d="M111.6-8C108.9,0.3,99.9,4.8,91.5,2c-8.3-2.8-12.8-11.8-10-20.1s11.8-12.8,20.1-10
			S114.4-16.3,111.6-8z"/>
		<path id="XMLID_5_" class="st8" d="M116.5,1.7c-1.6,4.8-6.8,7.4-11.6,5.8c-4.8-1.6-7.4-6.8-5.8-11.6s6.8-7.4,11.6-5.8
			C115.6-8.3,118.1-3.1,116.5,1.7z"/>
		
			<radialGradient id="XMLID_00000175289537184474771060000003150619919757646474_" cx="-2297.2559" cy="371.2852" r="16.2016" gradientTransform="matrix(0.9486 0.3163 0.3163 -0.9486 2129.2024 1038.7487)" gradientUnits="userSpaceOnUse">
			<stop  offset="0.4432" style="stop-color:#FFFFFF;stop-opacity:0"/>
			<stop  offset="0.9421" style="stop-color:#FFFFFF"/>
		</radialGradient>
		
			<path id="XMLID_4_" style="opacity:0.75;fill:url(#XMLID_00000175289537184474771060000003150619919757646474_);enable-background:new    ;" d="
			M81-32.9c-1.7,5.2-7.3,7.9-12.5,6.2c-5.2-1.7-7.9-7.3-6.2-12.5c1.7-5.1,7.3-7.9,12.5-6.2C80-43.7,82.7-38.1,81-32.9z"/>
	</g>
</g>
<g id="logo">
	
		<radialGradient id="XMLID_00000034065180400579513470000012115013481512658057_" cx="182.6116" cy="119.5275" r="109.7622" gradientTransform="matrix(1 0 0 -1 0 182)" gradientUnits="userSpaceOnUse">
		<stop  offset="0.165" style="stop-color:#283A97"/>
		<stop  offset="0.3735" style="stop-color:#171F69"/>
		<stop  offset="0.6252" style="stop-color:#00002F"/>
		<stop  offset="0.7373" style="stop-color:#000004"/>
	</radialGradient>
	<path id="XMLID_123_" style="fill:url(#XMLID_00000034065180400579513470000012115013481512658057_);" d="M288.9,90.5
		c-0.2,46.9-38.3,84.8-85.2,84.7C156.8,175,118.9,136.9,119,90c0.2-46.9,38.3-84.8,85.2-84.7C251.1,5.4,289,43.5,288.9,90.5z"/>
	<g>
		<g id="XMLID_31_">
			
				<linearGradient id="XMLID_00000050630308307896570790000011712253637174567312_" gradientUnits="userSpaceOnUse" x1="209.661" y1="144.663" x2="209.661" y2="27.2742" gradientTransform="matrix(1 0 0 -1 0 182)">
				<stop  offset="0" style="stop-color:#283A97"/>
				<stop  offset="2.570461e-02" style="stop-color:#24348C"/>
				<stop  offset="9.971984e-02" style="stop-color:#1C2674"/>
				<stop  offset="0.1765" style="stop-color:#11165D"/>
				<stop  offset="0.2542" style="stop-color:#040149"/>
				<stop  offset="0.3334" style="stop-color:#000037"/>
				<stop  offset="0.4143" style="stop-color:#000027"/>
				<stop  offset="0.4977" style="stop-color:#000017"/>
				<stop  offset="0.5851" style="stop-color:#000009"/>
				<stop  offset="0.6833" style="stop-color:#000004"/>
			</linearGradient>
			<path id="XMLID_119_" style="fill:url(#XMLID_00000050630308307896570790000011712253637174567312_);" d="M410,61.9
				c-3.3-4.5-10.1-10-23.8-10h-0.1c-13.8,0-27.1,6.3-36.9,16.5c-0.1-0.6-0.3-1.1-0.4-1.4c-3.2-9-13.3-14.3-26.9-14.4h-0.1
				c-14.5,0-27,6.8-33.5,17.5c-0.8-2.9-2-5.5-3.7-7.8c-4.4-6.1-11.5-9.6-20-9.9c-0.3,0-0.6,0-0.9,0c-6.1,0-11.8,1.6-16.6,4.7
				c-3.6-5.6-10-9-17.7-9c-3,0-5.9,0.5-8.4,1.5c0.7-1.2,1.3-2.5,1.7-3.9c1.4-4.7,0.9-9.1-1.6-12.5c-2.6-3.6-7.1-5.7-12.4-5.7
				c0,0,0,0-0.1,0c-9.7,0-17.6,5.6-20.3,14.4c-1.4,4.7-0.9,9.1,1.6,12.5c0.1,0.2,0.3,0.4,0.5,0.6c-1.9,1-3.6,2.2-5.1,3.7l1-3.3
				c2.3-7.8,1.3-15.2-2.8-20.7c-3.7-5-9.6-8-15.8-8c-9,0-16.3,6-19.1,15.6c-0.6,2.1,0.1,4.4,1.8,5.9c0.9,0.8,2,1.2,3.1,1.3
				l-4.4,14.2c-4.7-7.2-13.9-11.5-25.5-11.5h-0.1c-15,0-28.8,6.8-38.2,18.2c-0.6-3.1-1.8-5.9-3.6-8.4c-3.3-4.5-10.1-9.9-23.8-10
				h-0.1c-5.8,0-11.7,1.1-17.5,3.4c0,0,0,0-0.1,0L40,55.5c-0.7,0.3-1.5,0.6-2.3,0.9C24.1,62.1,13.2,73.8,8,88.3
				c-4.4,11.9-3.6,23.1,2.2,31.4c5.6,8.1,15.6,12.8,27.3,12.8c11.5,0,20.4-3.1,26.5-9.2c3.5-3.5,4.2-7.5,6.5-11.4
				c3.7-6.3,6.8,5.3,8.6,7.8c6,8.2,16.2,12.9,27.9,12.9c11.6,0,20.4-3.1,26.2-9.3c1.4-1.5,2.5-3,3.4-4.6c0.7,2.2,1.7,4.2,3,6
				c3.7,5,9.6,8,15.8,8c6.7,0,12.4-3.2,16-8.8c0.2,0.3,0.3,0.5,0.5,0.8c3.7,5,9.6,8,15.8,8c2.7,0,5.2-0.5,7.5-1.5l-3.8,12.3
				c-1.3,4.2-0.7,8.3,1.6,11.5c2.7,3.7,7.6,6,13.1,6c8.7,0,15.9-4.7,18.9-12.3c0.5-1.3,1.8-5,5.6-17.2c2.6,1.2,5.9,2.1,10.1,2.2
				c0.3,0,0.6,0,0.9,0c11.1,0,24-6.1,33.8-17.9c0.4,2.4,1.2,4.9,2.8,7.3c4.2,6.5,11.9,9.9,23.1,10.2c0.5,0,1,0,1.5,0
				c14.7,0,27.2-6.7,33.6-17.6c0.8,1.9,1.8,3.7,3,5.4c5.4,7.4,14.4,11.4,25.4,11.4c13,0,22.6-3.3,28.7-10c6.7-7.4,6.3-15.8,6.2-16.8
				c-0.1-0.9-0.4-1.8-0.9-2.6c2.5-1.1,4.7-2.7,6.7-5.1c3.2-3.7,5.8-8.5,7.3-13.3C415.2,76,414.4,67.9,410,61.9z"/>
			<g id="XMLID_90_">
				<path class="st12" d="M146,75.9c-2.1,6.8-8.2,10.4-15,10.4c-5.9,0-10.4-3.6-8.9-10c-1.1-0.9-2.5-1.3-4.3-1.3
					c-6.3,0-12.5,5.7-15.5,15.4c-3.6,11.5,3.7,19.4,15.6,19.4c5.3,0,12-1.7,16.2-4c0,0,1.3,21-27.3,21c-19.4,0-33.1-14.5-26.2-36.6
					c5.7-18.5,22.4-32.7,42.9-32.7c12.5,0,20.4,5.4,22.6,12.7C146.2,70.3,146.9,73,146,75.9z M78.9,82.9c-1.2,3.9-3.3,7.9-6.2,11.3
					c-3.1,3.6-6.2,4.7-11.9,4.7l-26.6-0.1C34.1,99,34,99.2,34,99.4c1.2,6.4,7.1,10.3,15.5,10.3c5.3,0,12.1-1.7,16.4-4
					c0,0,0.1,21-28.5,21c-19.4,0-32.2-14.5-24.2-36.6c4.7-12.8,14.5-23.5,26.9-28.9c0.7-0.3,1.5-0.6,2.3-0.9l0,0c5-2,10.3-3,15.6-3
					C75.9,57.4,83.5,68.2,78.9,82.9z M53.3,73.5c-6.8,0-12.7,4.9-16,12.7l18.5,0.1c0.9-1.1,1.9-2.9,2.4-4.7
					C59.8,76.5,57.7,73.5,53.3,73.5z M208.7,33.1c-6.8,0-12.9,3.6-15,10.4c-2.1,7,2.5,10.8,8.7,10.8c6.8,0,12.9-3.6,15-10.4
					C219.5,37,214.9,33.1,208.7,33.1z M174.3,105.6c-6.5,22,21.3,29.9,26.9,9.9c-3.2,1.5-6-2.3-4.6-6.3l12.5-40.7
					c2-6.5-3.2-10.1-9-10.1c-6.3,0-11.9,3.3-14,9.5L174.3,105.6z M407.2,83.1c-1.2,3.8-3.3,7.9-6.2,11.3c-3.1,3.6-6.2,4.7-11.9,4.7
					L362.5,99c-0.4,0.7-0.4,2.2-0.4,2.2c0.2,6.5,4.9,9.5,12.7,9.5c5.7,0,14.9-2.4,19.1-4.5c0,0,1.7,20.6-29.3,20.6
					c-20.2,0-29.3-15-23.3-34.5c6.5-20.8,25.7-34.8,44.9-34.8C404.2,57.6,411.7,68.3,407.2,83.1z M381.6,73.7
					c-6.8,0-12.7,4.9-16,12.7l18.5,0.1c0.9-1.1,1.9-2.9,2.4-4.7C388.1,76.7,386,73.7,381.6,73.7z M318.8,85.5
					c-5.4-1.6-6.5-4.3-5.9-6.9c1.4-6.3,10.7-4.5,10.7-4.5c-1.2,5.2,2.5,8.1,7.4,8.1c5.6,0,10.6-3,12.4-8.6c0.9-2.8,0.1-4.7,0.1-4.7
					c-2.3-6.6-10.4-10.6-21.7-10.6c-15.2,0-27.7,8.5-31.4,20.4c-4,13,2.7,20.9,16.4,24.4c4.4,1.1,5,2.6,4.4,4.7
					c-0.8,2.5-3.3,3.3-8.3,3.6c-8.3,0.4-16.4-3.3-21.1-7.4c0,0-9.2,22.7,19.3,23.5c17.2,0.5,29.1-8.9,32.8-20.7
					C337.3,96.1,333,89.7,318.8,85.5z M180.9,53.5c6.5-22-21.3-29.9-26.9-9.9c3.1-1.5,6.3,2.9,5,6.8l-17,55.1
					c-6.5,22,21.3,29.9,26.9,9.9c-3.1,1.5-6.3-2.9-5-6.8L180.9,53.5z M282.1,90.9c-7.1,23.9-26,37.4-41.4,37
					c-6.5-0.2-10.8-2.6-13.1-6.3c0,0-7.4,23.9-8,24.9c-2.2,5.7-7.6,8.8-13.6,8.8c-5.8,0-11.4-3.6-9.4-10.1l23.6-75.9
					c2.2-7.4-2.3-8.2-4.9-7.3c4.8-11.9,28.3-11.5,29.3,4.8c5.1-6.2,12.5-9,19.9-8.8C279.8,58.5,287.8,71.3,282.1,90.9z M239.6,81.6
					l-7.8,25.5c1.5,1.9,3,2.9,6.5,3c8.3,0.2,16.9-6.6,20.8-19.3C266.3,67.7,242.7,70.9,239.6,81.6z"/>
			</g>
			<g id="XMLID_32_">
				<g>
					
						<linearGradient id="SVGID_00000084516866584357104700000005832768309974873496_" gradientUnits="userSpaceOnUse" x1="101.1385" y1="-18.0645" x2="319.1744" y2="199.9714" gradientTransform="matrix(1 0 0 -1 0 182)">
						<stop  offset="0.13" style="stop-color:#A7A9AC"/>
						<stop  offset="0.1345" style="stop-color:#AAACAF"/>
						<stop  offset="0.185" style="stop-color:#CBCCCE"/>
						<stop  offset="0.2253" style="stop-color:#DFE0E1"/>
						<stop  offset="0.25" style="stop-color:#E6E7E8"/>
						<stop  offset="0.2747" style="stop-color:#DFE0E1"/>
						<stop  offset="0.315" style="stop-color:#CBCCCE"/>
						<stop  offset="0.3655" style="stop-color:#AAACAF"/>
						<stop  offset="0.37" style="stop-color:#A7A9AC"/>
						<stop  offset="0.3749" style="stop-color:#AAACAF"/>
						<stop  offset="0.4296" style="stop-color:#CBCCCE"/>
						<stop  offset="0.4732" style="stop-color:#DFE0E1"/>
						<stop  offset="0.5" style="stop-color:#E6E7E8"/>
						<stop  offset="0.5268" style="stop-color:#DFE0E1"/>
						<stop  offset="0.5704" style="stop-color:#CBCCCE"/>
						<stop  offset="0.6251" style="stop-color:#AAACAF"/>
						<stop  offset="0.63" style="stop-color:#A7A9AC"/>
						<stop  offset="0.6345" style="stop-color:#AAACAF"/>
						<stop  offset="0.685" style="stop-color:#CBCCCE"/>
						<stop  offset="0.7253" style="stop-color:#DFE0E1"/>
						<stop  offset="0.75" style="stop-color:#E6E7E8"/>
						<stop  offset="0.7747" style="stop-color:#DFE0E1"/>
						<stop  offset="0.815" style="stop-color:#CBCCCE"/>
						<stop  offset="0.8655" style="stop-color:#AAACAF"/>
						<stop  offset="0.87" style="stop-color:#A7A9AC"/>
					</linearGradient>
					<path style="fill:url(#SVGID_00000084516866584357104700000005832768309974873496_);" d="M221.1,60.8c2.6-2.3,6.3-3.4,9.6-3.4
						c3.1,0,6.5,0.9,9,3c-2.6-3-6.6-4.2-10.2-4.2c-3.4,0-7.3,1.1-9.8,3.6C220.2,60,220.7,60.4,221.1,60.8z M168.9,35.8
						c2.8,0,5.5,1,7.6,2.8c-2.2-2.5-5.4-4.1-8.8-4.1c-4.5,0-8.1,2.5-10.2,6.8c0.5,0.2,1,0.5,1.4,0.9C161,38.2,164.6,35.8,168.9,35.8
						z M239.5,113.8h0.5c9.9,0,18.8-8.3,22.7-21c2.7-8.8,1-13.7-0.8-16.3c-0.5-0.7-1.1-1.3-1.7-1.8c0.2,0.2,0.3,0.4,0.5,0.6
						c1.9,2.6,3.5,7.5,0.8,16.3c-3.9,12.8-12.9,21.1-22.7,21h-0.5c-3.2-0.1-5.1-0.9-6.6-2.2C233.4,112.4,235.5,113.6,239.5,113.8z
						 M197.5,50.6c-0.9-1.3-1-3-0.3-5.2c1.7-5.4,6.5-8.7,12.7-8.7c2,0,3.7,0.5,4.9,1.3c0,0,0-0.1-0.1-0.2c-1.1-1.5-3.3-2.4-6-2.4
						c-6.2,0-11,3.3-12.7,8.7c-0.7,2.2-0.5,4,0.4,5.3C196.7,49.9,197.1,50.3,197.5,50.6z M388,74.1C388.1,74.2,388.1,74.2,388,74.1
						c1.1,1.5,2.1,4.2,0.8,8.4c-0.7,2.1-1.7,4.2-2.9,5.6l-0.7,0.9l-21.4-0.1l-0.5,1.2l23.2,0.1l0.7-0.9c1.2-1.4,2.2-3.4,2.9-5.6
						c1.3-4.3,0.3-6.9-0.7-8.3C389,75,388.6,74.6,388,74.1z M363.5,109.8c2.1,2.5,5.9,4.5,12.5,4.6c4.2,0,9.9-1.1,14.5-2.6
						c0.2-0.6,0.4-1.3,0.5-1.8c-4.9,1.7-11.6,3.2-16.3,3.2C369.3,113.1,365.8,111.7,363.5,109.8z M327.8,73.4l-1.4-0.3l-0.3,1.5
						c-0.3,1.5-0.2,2.6,0.5,3.5c0.2,0.3,0.6,0.6,1,0.8c-0.4-0.8-0.5-1.8-0.3-3.1L327.8,73.4z M319.4,89.1c5,1.5,8.7,3.2,11,5.3
						c-2.2-2.6-6.3-4.8-12.3-6.6c-2.3-0.7-3.9-1.6-5.1-2.5C314.2,86.7,316.2,88.1,319.4,89.1z M296.1,95.3c-0.6-0.7-1.1-1.4-1.5-2.1
						c-1.8-3.3-2-7.5-0.5-12.5c3.5-11.2,15.1-18.7,29-18.7c7.3,0,13.1,1.8,16.5,4.8c-3.2-3.8-9.5-6-17.8-6
						c-13.9,0-25.5,7.5-28.9,18.7c-1.5,5-1.4,9.2,0.5,12.5C294,93.1,294.9,94.2,296.1,95.3z M243.7,73.2c0.5-0.3,1.1-0.6,1.7-0.8
						l2.3-2.8c4.2-5.1,10.3-7.9,17.3-7.9c0.2,0,0.4,0,0.7,0c4.7,0.1,8.7,1.6,11.6,4.2c-3-3.4-7.4-5.3-12.8-5.4c-0.2,0-0.5,0-0.7,0
						c-7,0-13.2,2.8-17.3,7.9l-2.8,3.4L243.7,73.2z M126,76.6l-1.2-1l-0.1-0.1l-0.3,1.3c-0.5,2-0.2,3.6,0.7,4.7
						c0.3,0.4,0.7,0.7,1.1,1c-0.8-1.1-1-2.6-0.5-4.5L126,76.6z M179.4,121.1c-2.5-3.5-3.1-8.3-1.5-13.5l11.7-37.7
						c1.6-4.9,5.9-7.8,11.6-7.8c2,0,3.9,0.5,5.2,1.5c0,0,0-0.1-0.1-0.1c-1.1-1.6-3.6-2.5-6.3-2.6c-5.7,0-10.1,2.9-11.6,7.8
						l-11.7,37.7c-1.6,5.3-1,10.1,1.6,13.5c0.5,0.7,1.1,1.4,1.8,1.9C179.8,121.5,179.6,121.3,179.4,121.1z M285.9,119.8
						c-2.2-3.5-2-7.7-1.4-10.5c4.6,3.1,11.2,5.8,18.4,5.8c0.5,0,1,0,1.5,0c4.3-0.2,9.1-0.8,10.4-5.3c0.5-1.6,0.4-3-0.3-4.3
						c-0.4-0.6-0.9-1.2-1.5-1.7c0.1,0.2,0.2,0.3,0.3,0.5c0.7,1.2,0.8,2.6,0.3,4.3c-1.4,4.4-6.1,5.1-10.4,5.3c-0.5,0-1,0-1.5,0
						c-7.2,0-13.8-2.7-18.4-5.8c-0.6,2.8-0.8,7,1.4,10.5c0.5,0.8,1.2,1.6,2,2.3C286.5,120.5,286.2,120.2,285.9,119.8z M147.1,121.1
						c-2.6-3.5-3.1-8.3-1.6-13.5l17-55.1c0.8-2.5,0.4-5.4-1.1-7.5c-0.4-0.6-0.9-1.1-1.5-1.5c0.1,0.1,0.2,0.2,0.2,0.3
						c1.5,2.2,1.9,5.1,1.1,7.5l-17,55.1c-1.5,5.3-1,10.1,1.6,13.5c0.5,0.7,1.1,1.4,1.8,1.9C147.5,121.5,147.3,121.3,147.1,121.1z
						 M346.9,117.5c-4.2-5.7-4.9-14-2-23.2c5.9-19.2,23.8-33.1,42.5-33.1c6.8,0,12.1,1.6,15.5,4.6c-3.3-3.8-9-5.9-16.7-5.9
						c-18.7,0-36.6,13.9-42.5,33.1c-2.9,9.3-2.1,17.5,2,23.2c0.7,0.9,1.5,1.8,2.3,2.6C347.6,118.4,347.2,118,346.9,117.5z
						 M200.1,147.1l23.6-75.9c1.1-3.6,0.9-6.5-0.5-8.4c-0.3-0.5-0.7-0.8-1.2-1.2c1.4,2,1.6,4.7,0.5,8.3l-23.6,75.8
						c-0.5,1.7-0.4,3.1,0.5,4.3c0.3,0.4,0.7,0.8,1.2,1.1C199.7,150.2,199.6,148.8,200.1,147.1z M36,107.7c3.2,3.6,8.3,5.7,14.7,5.8
						c3.6,0,7.7-0.7,11.5-1.9c0.3-0.6,0.5-1.3,0.6-1.8c-4.3,1.5-9.2,2.5-13.4,2.5C43.9,112.2,39.2,110.5,36,107.7z M118,112.2
						c-5.7,0-10.6-1.7-13.9-4.8c3.4,3.9,8.7,6,15.2,6c3.6,0,7.8-0.7,11.6-2c0.2-0.6,0.4-1.2,0.5-1.8
						C127.1,111.3,122.2,112.2,118,112.2z M17.9,116.3c-4.2-6.1-4.6-14.6-1.2-24c4.5-12.4,13.8-22.4,25.6-27.5
						c0.7-0.3,1.3-0.6,2-0.8l0.2-0.1c4.8-1.9,9.7-2.8,14.6-2.8c6.8,0,12.1,1.6,15.5,4.6c-3.3-3.8-9-5.9-16.7-5.9
						c-4.8,0-9.8,1-14.6,2.8L43,62.8c-0.6,0.3-1.3,0.5-2,0.8c-11.7,5.1-21,15.1-25.6,27.5c-3.4,9.4-3,17.9,1.2,24
						c0.8,1.1,1.6,2.1,2.6,3C18.8,117.5,18.4,116.9,17.9,116.3z M59.8,73.9C59.8,74,59.8,74,59.8,73.9c1.1,1.5,2.1,4.2,0.8,8.4
						c-0.7,2.1-1.7,4.2-2.9,5.6L57,88.7l-21.4-0.1L35,89.9L58.2,90l0.7-0.9c1.2-1.4,2.2-3.4,2.9-5.6c1.3-4.3,0.3-6.9-0.7-8.3
						C60.7,74.8,60.3,74.4,59.8,73.9z M86.7,116.1c-4.5-6.2-5.4-14.4-2.5-23.8c5.7-18.5,22-31,40.5-31c7.1,0,13,1.9,16.7,5.3
						c-3.5-4.1-9.9-6.5-17.9-6.5C105,60,88.7,72.5,83,91c-2.9,9.4-2.1,17.6,2.5,23.8c0.8,1,1.6,2,2.6,2.9
						C87.6,117.2,87.1,116.6,86.7,116.1z"/>
				</g>
			</g>
		</g>
		<g>
			<path id="XMLID_29_" class="st14" d="M289.7,44.6c-0.2-0.5-0.5-0.9-0.8-1.3c-0.1-0.1-0.1-0.1-0.2-0.2c0.6-0.4,1-1,1.2-1.8
				c0-0.1,0-0.2,0-0.3c0-0.4-0.1-0.7-0.4-1c0,0-0.1-0.1-0.2-0.2c-0.6-0.5-1.7-1.1-3.5-1.2c-0.1,0-0.2,0-0.4,0
				c-0.6,0-1.7,0.2-2.6,0.8l0,0c-0.8-0.6-1.8-0.7-2.7-0.3c-0.4-0.2-0.8-0.3-1.3-0.3c-0.7,0-1.7,0.3-2.4,1.6l-0.1,0.1
				c0-0.1-0.1-0.1-0.1-0.1c-0.5-1-1.4-1.6-2.6-1.6c-0.5,0-1,0.1-1.5,0.4c-0.4-0.3-0.9-0.3-1.4-0.3h-3.5c-0.9,0-1.5,0.4-1.8,0.7
				c-0.5,0.5-0.7,1.2-0.7,1.9v3.8h-0.1h-1.1v-4.1c0-0.7-0.2-1.3-0.6-1.8c-0.3-0.3-0.8-0.6-1.7-0.6l0,0h-0.3c-0.8,0-1.5,0.3-2,1.1
				c-0.6-0.6-1.7-1.2-3.8-1.2c-1.7,0-3.2,0.6-4.2,1.7l0,0c-0.3-0.9-1.1-1.5-2.2-1.5h-0.3c-0.7,0-1.2,0.2-1.7,0.6
				c-0.1,0.1-0.2,0.3-0.3,0.5c-0.8-0.7-1.9-1.1-3.3-1.1h-2.5c-0.7,0-1.1,0.2-1.5,0.4c-0.4-0.3-1-0.4-1.6-0.4c-1,0-1.8,0.5-2.2,1.3
				c-0.5-0.5-1.2-0.8-2.1-0.8c-0.9,0-1.6,0.3-2.1,0.9c-1-1.7-3.7-1.7-4.8-0.1c-0.2,0.3-0.3,0.8-0.2,1.2l1.9,6.8
				c0.2,0.9,0.9,1.9,2.7,1.9l0,0c0,0,0,0,0.1,0c1.2,0,1.9-0.5,2.4-1.3c0.4,0.8,1.3,1.3,2.5,1.3c1.5,0,2.2-0.7,2.5-1.4
				c0.1,0.2,0.2,0.5,0.4,0.7c0.3,0.3,0.8,0.7,1.7,0.7l0,0h0.3l0,0l0,0c0.8,0,1.4-0.4,1.7-0.7c0.2-0.2,0.3-0.4,0.4-0.6l0.1,0.1
				c0.7,0.8,1.4,1.2,2.5,1.2c0.7,0,1.2-0.2,1.6-0.5c0.3,0.2,0.7,0.5,1.4,0.5c0,0,0,0,0.1,0h0.3c0.9,0,1.4-0.4,1.7-0.7
				c0.2-0.2,0.3-0.4,0.4-0.7c0.9,0.9,2.3,1.5,3.8,1.5l0,0l0,0c0.8,0,1.5-0.2,2.1-0.5c0.9,0.6,2.5,0.3,2.8,0.2c0.1,0,0.1-0.1,0.1-0.1
				c0.4,0.2,0.9,0.4,1.4,0.4l0,0h3.5c0.5,0,0.9-0.2,1.3-0.4c0.4,0.2,0.8,0.4,1.3,0.4l0,0h4.2c0.7,0,1.3-0.2,1.7-0.6
				c0.2-0.2,0.5-0.6,0.6-1c0.3,1,1,1.7,2.2,1.7l0,0c0,0,0,0,0.1,0h0.3c1.4,0,2.3-0.9,2.3-2.4v-1.6l0.9-1.5c0.2,0.2,0.5,0.3,0.8,0.3
				h0.1c0.4,0,0.8-0.1,1.1-0.3c0.2,0.3,0.3,0.6,0.5,0.8c0.1,0.1,0.2,0.2,0.3,0.3c-0.8,0.3-1.3,1-1.5,1.8c-0.2,0.5-0.1,1,0.2,1.4
				c0,0.1,0.1,0.1,0.2,0.2c1,1,2.6,1.3,3.8,1.3h0.1l0,0c1.4,0,2.5-0.4,3.3-1c0.9-0.7,1.4-1.8,1.4-3
				C289.9,45.6,289.8,45.1,289.7,44.6z"/>
			<g>
				<path id="XMLID_28_" class="st12" d="M278.9,40.3c-0.5,0-0.9,0.3-1.2,0.8c-0.2,0.4-1.3,2.6-1.4,2.7c0-0.1-1.1-2.3-1.3-2.7
					c-0.2-0.5-0.6-0.8-1.3-0.8c-0.7,0-1.2,0.4-1.4,0.6l2.8,4.7v2c0,0.7,0.3,1,0.9,1h0.3c0.6,0,0.9-0.3,0.9-1v-2L280,41
					C279.9,40.6,279.5,40.3,278.9,40.3z"/>
				<path id="XMLID_27_" class="st12" d="M271.6,46.7h-3.2v-1.5h2.1c0.4,0,0.6-0.1,0.8-0.2c0.1-0.2,0.2-0.4,0.2-0.6v-0.1
					c0-0.3-0.1-0.5-0.2-0.6c-0.2-0.1-0.4-0.2-0.8-0.2h-2.1V42h2.5c0.4,0,0.6-0.1,0.8-0.2c0.1-0.1,0.2-0.4,0.2-0.6v-0.1
					c0-0.3-0.1-0.5-0.2-0.6c-0.1-0.2-0.4-0.2-0.8-0.2h-3.5c-0.4,0-0.7,0.1-0.8,0.3c-0.2,0.2-0.3,0.5-0.3,0.9v5.8
					c0,0.4,0.1,0.8,0.3,0.9c0.2,0.2,0.5,0.3,0.8,0.3h4.1c0.4,0,0.6-0.1,0.8-0.2c0.2-0.1,0.2-0.4,0.2-0.7s-0.1-0.5-0.2-0.6
					C272.2,46.8,271.9,46.8,271.6,46.7z"/>
				<path id="XMLID_26_" class="st12" d="M264.8,46.7h-2.5v-5.5c0-0.7-0.3-1-0.9-1h-0.3c-0.6,0-0.9,0.3-0.9,1v6.1
					c0,0.4,0.1,0.7,0.3,0.9c0.2,0.2,0.5,0.3,0.9,0.3h3.5c0.7,0,1-0.3,1-0.9l0,0C265.7,47,265.5,46.7,264.8,46.7z"/>
				<path id="XMLID_25_" class="st12" d="M258.4,44.2h-3.3c-0.1,0.1-0.1,0.3-0.1,0.6c0,0.5,0.3,1,0.9,1h0.7
					c-0.2,0.6-0.8,1.1-1.5,1.1c-1.2,0-2-0.9-2-2.3c0-1.3,0.8-2.6,2.5-2.6c0.9,0,1.5,0.3,2,1c0.8-0.1,1.1-0.5,1.1-1
					c0-0.8-1-1.8-3.3-1.8c-3.2,0-4.5,2.4-4.5,4.4c0,2.2,1.4,4.1,4,4.1c1.1,0,2.1-0.5,2.6-1.4v0.5c0,0.5,0.4,0.9,1.1,0.9
					c0.3,0,0.5-0.1,0.6-0.1V45C259.2,44.3,258.8,44.2,258.4,44.2z"/>
				<path id="XMLID_24_" class="st12" d="M248.9,40.3h-0.3c-0.6,0-0.9,0.3-0.9,1v6.3c0,0.7,0.3,1,0.9,1h0.3c0.6,0,0.9-0.3,0.9-1
					v-6.3C249.8,40.6,249.5,40.3,248.9,40.3z"/>
				<path id="XMLID_21_" class="st12" d="M244.8,45.5c1.1-0.3,1.8-1.3,1.8-2.4c0-1.1-0.7-2.8-3.3-2.8h-2.5c-0.4,0-0.7,0.1-0.9,0.3
					s-0.3,0.5-0.3,0.9v6c0,0.3,0.1,0.6,0.2,0.7c0.2,0.2,0.4,0.2,0.7,0.2h0.3c0.3,0,0.5-0.1,0.7-0.3c0.1-0.2,0.2-0.4,0.2-0.7v-1.7
					h0.8c0,0,1.2,1.5,1.6,2c0.4,0.5,0.7,0.7,1.4,0.7s1.1-0.3,1.3-0.6L244.8,45.5z M243,44.2h-1.3V42h1.3c1,0,1.5,0.4,1.5,1.1
					C244.5,43.8,243.9,44.2,243,44.2z"/>
				<path id="XMLID_20_" class="st12" d="M237.7,40.3c-0.6,0-1,0.5-1.2,1.2c-0.2,0.9-0.8,3.9-0.8,4c0-0.1-1-3.6-1-3.9
					c-0.1-0.4-0.3-0.8-1.2-0.8s-1.2,0.5-1.2,0.8c-0.1,0.3-0.9,3.7-1,3.9c0-0.2-0.8-3.6-0.8-4c-0.1-0.7-0.6-1.2-1.2-1.2
					c-0.7,0-1.1,0.3-1.4,0.7l1.9,6.8c0.2,0.7,0.6,0.8,1.3,0.8c0.6,0,1.1-0.1,1.3-0.8c0,0,1.1-4.1,1.1-4.2c0,0.1,1.1,4.2,1.1,4.2
					c0.2,0.7,0.6,0.8,1.3,0.8c0.8,0,1.2-0.2,1.3-0.8L239,41C238.8,40.5,238.4,40.3,237.7,40.3z"/>
				<g id="XMLID_18_">
					<path id="XMLID_19_" class="st12" d="M280.4,42.5c0.2-0.1,0.4-0.1,0.5-0.2c0.1-0.1,0.2-0.2,0.2-0.3s0-0.2-0.1-0.2
						s-0.2-0.1-0.3-0.1c-0.1-0.1-0.2-0.1-0.2-0.2c-0.1-0.1-0.1-0.2-0.1-0.4s0.1-0.4,0.3-0.6c0.2-0.1,0.4-0.2,0.6-0.2
						c0.3,0,0.5,0.1,0.7,0.3s0.3,0.4,0.3,0.8c0,1.2-0.6,1.8-1.9,1.9V42.5z"/>
				</g>
				<path id="XMLID_16_" class="st12" d="M284.9,45.1c-0.4-0.1-0.7-0.2-1-0.4c-0.3-0.1-0.5-0.3-0.7-0.5s-0.3-0.4-0.4-0.7
					s-0.1-0.5-0.2-0.9c0-0.4,0.1-0.9,0.3-1.1c0.1-0.3,0.3-0.5,0.6-0.7c0.8-0.7,2.1-0.7,2.2-0.7l0,0c0.2,0,1.7,0,2.8,0.9l0,0l0,0
					c-0.1,0.7-0.6,1-1.2,1c-0.3,0-0.5-0.1-0.5-0.1s-0.7-0.2-1.3-0.2c-0.6,0-0.9,0.2-1,0.5v0.1c0,0.2,0.1,0.3,0.1,0.4
					c0,0.1,0.1,0.2,0.3,0.3c0.1,0.1,0.3,0.1,0.4,0.2c0.2,0.1,0.3,0.1,0.6,0.2c0.5,0.1,0.9,0.2,1.2,0.4c0.3,0.1,0.6,0.3,0.8,0.5
					c0.2,0.2,0.4,0.4,0.5,0.7s0.2,0.6,0.1,1c0,0.8-0.3,1.5-0.8,1.9c-0.6,0.5-1.4,0.7-2.4,0.7l0,0c-0.1,0-2,0-3-1l0,0l0,0
					c0.3-1.4,1.9-0.9,1.9-0.9c0.5,0.1,0.9,0.2,1.2,0.2c1.1,0,1.2-0.7,1.2-0.7s0.1-0.5-0.4-0.7L284.9,45.1z"/>
			</g>
		</g>
	</g>
</g>
<path id="XMLID_00000162313824032513424290000001898847587811255743_" class="st14" d="M427.3,56.7c4.5,0,8.1,3.5,8.1,8
	c0,4.5-3.6,8-8.2,8c-4.5,0-8.2-3.5-8.2-8c0-4.5,3.7-8,8.2-8H427.3z M427.3,57.9c-3.6,0-6.7,3-6.7,6.7c0,3.8,3,6.8,6.8,6.8
	c3.7,0,6.6-3,6.6-6.8c0-3.7-2.9-6.7-6.6-6.7H427.3z M425.7,69.2h-1.5v-8.9c0.8-0.1,1.5-0.2,2.6-0.2c1.5,0,2.4,0.3,2.9,0.7
	c0.5,0.4,0.8,1,0.8,1.9c0,1.2-0.8,1.8-1.7,2.1v0.1c0.8,0.1,1.3,0.9,1.5,2.1c0.3,1.4,0.5,1.9,0.7,2.2h-1.6c-0.2-0.2-0.4-1.1-0.7-2.2
	c-0.1-1.2-0.7-1.6-2-1.6h-1V69.2z M425.7,64.3h1.1c1.2,0,2.3-0.4,2.3-1.5c0-0.8-0.6-1.6-2.3-1.6c-0.5,0-0.8,0.1-1.1,0.1V64.3z"/>
</svg>
