<svg version="1.1" id="Layer_1" xmlns="http://www.w3.org/2000/svg" xmlns:xlink="http://www.w3.org/1999/xlink" x="0px" y="0px"
	 width="100%" viewBox="0 0 2000 600" enable-background="new 0 0 2000 600" xml:space="preserve">

<path fill="#00AB69" opacity="1.000000" stroke="none" 
	d="
M722.002380,278.770782 
	C722.002014,231.830902 722.002014,185.367416 722.002014,138.453644 
	C732.951660,138.453644 743.640259,138.453644 754.814819,138.453644 
	C754.814819,163.947800 754.814819,189.362610 754.814819,214.777420 
	C755.177246,214.961548 755.539673,215.145676 755.902100,215.329803 
	C759.865051,210.715988 763.957886,206.206284 767.759521,201.463150 
	C773.001282,194.923080 777.971558,188.165573 783.200806,181.615112 
	C783.898315,180.741241 785.426086,180.096420 786.576660,180.085007 
	C797.884521,179.972794 809.193848,180.017273 822.161255,180.017273 
	C810.831299,196.035233 797.758850,208.976761 786.579590,223.474640 
	C798.954102,243.662491 812.728394,263.154480 825.486633,284.951935 
	C812.387451,284.951935 801.110657,285.062866 789.842102,284.806152 
	C788.492004,284.775391 786.763306,283.000214 785.930542,281.603943 
	C780.534973,272.557251 775.343811,263.388702 770.074219,254.266693 
	C768.864746,252.172913 767.610962,250.104706 766.216614,247.753250 
	C759.329285,253.424988 753.374268,258.757812 754.866089,268.646790 
	C755.626709,273.688904 754.999268,278.940460 754.999268,285.008423 
	C750.528809,285.008423 746.285950,285.008698 742.043030,285.008362 
	C737.212646,285.008026 732.367493,284.771698 727.556274,285.075165 
	C723.066833,285.358276 721.425354,283.505524 722.002380,278.770782 
z"/>
<path fill="#00AB69" opacity="1.000000" stroke="none" 
	d="
M1132.929932,182.007019 
	C1133.841064,181.342682 1134.744507,180.113144 1135.664551,180.100632 
	C1145.812256,179.962677 1155.962524,180.013931 1166.704712,180.013931 
	C1166.812134,182.033691 1166.985718,183.786682 1166.986694,185.539780 
	C1167.002930,216.692215 1166.928955,247.844971 1167.076904,278.996704 
	C1167.097778,283.391174 1166.106201,285.433075 1161.256104,285.098785 
	C1155.618774,284.710205 1149.926025,284.820496 1144.272583,285.065491 
	C1139.486084,285.272949 1137.248535,283.295349 1137.042114,278.541412 
	C1136.958862,276.623291 1136.277100,274.731140 1135.867798,272.827148 
	C1135.343384,272.408264 1134.818970,271.989410 1134.294556,271.570526 
	C1132.727295,273.682251 1131.471558,276.147491 1129.541626,277.847504 
	C1118.282471,287.765167 1099.749268,290.530212 1086.374023,282.107635 
	C1076.721802,276.029480 1072.589355,266.360962 1072.204224,255.714355 
	C1071.351074,232.134033 1071.538574,208.517197 1071.148926,184.917755 
	C1071.089722,181.333054 1072.007446,179.819351 1075.863525,179.927948 
	C1084.186401,180.162354 1092.524414,180.149353 1100.848267,179.934311 
	C1104.748535,179.833542 1106.100952,181.171631 1106.069336,185.113831 
	C1105.917847,204.103928 1106.046753,223.096100 1105.973022,242.087128 
	C1105.950562,247.901657 1106.148315,254.125793 1112.292847,256.401764 
	C1118.601074,258.738342 1124.756470,256.748566 1129.241211,251.285797 
	C1130.350342,249.934723 1131.103760,248.291626 1132.405151,246.123505 
	C1132.836426,224.311829 1132.883179,203.159409 1132.929932,182.007019 
z"/>
<path fill="#00AB69" opacity="1.000000" stroke="none" 
	d="
M941.253235,191.241974 
	C952.180298,180.694672 965.065491,177.551605 979.632446,177.818832 
	C993.357788,178.070648 1004.178528,183.651642 1013.362366,193.027786 
	C1021.734741,201.575439 1025.033691,212.434601 1027.166992,224.042923 
	C1029.305786,235.681244 1027.072876,246.620270 1022.728943,256.894440 
	C1016.836060,270.832001 1006.246033,280.542419 991.386658,284.971252 
	C988.901978,285.711853 986.392822,286.370209 983.099487,287.288330 
	C983.099487,277.288757 983.083313,267.733398 983.140564,258.178497 
	C983.143982,257.612061 983.622925,256.925781 984.074890,256.502869 
	C993.366882,247.809311 992.424500,236.411133 991.705811,225.413193 
	C991.399841,220.730148 989.036804,216.100861 987.190247,211.619476 
	C984.860474,205.965240 979.816162,205.486847 974.633789,206.053391 
	C969.700623,206.592651 965.700256,209.132919 963.831116,213.702621 
	C958.825562,225.940018 957.972290,238.565689 964.137817,250.480423 
	C967.034058,256.077301 969.737915,261.053162 969.125061,267.636719 
	C968.543579,273.883453 969.000000,280.226837 969.000000,286.782074 
	C949.908203,282.829803 935.391724,273.422882 929.053284,254.913879 
	C921.138306,231.801071 923.270752,210.039276 941.253235,191.241974 
z"/>
<path fill="#00AB69" opacity="1.000000" stroke="none" 
	d="
M662.811829,463.960876 
	C657.497314,465.632355 652.563416,467.247345 647.019043,469.062164 
	C647.019043,458.935394 647.004395,449.789581 647.045593,440.644043 
	C647.049072,439.872833 647.182983,438.864716 647.667664,438.368134 
	C658.137695,427.640656 657.400940,414.398682 654.481323,401.621948 
	C651.584534,388.944916 642.478638,384.038025 632.172302,390.330200 
	C628.765503,392.410095 626.047058,397.545258 625.302551,401.694153 
	C623.134705,413.776093 621.936340,426.089783 630.237305,436.870056 
	C630.614685,437.360107 630.912231,438.062683 630.914856,438.667664 
	C630.956726,448.297241 630.944275,457.927063 630.944275,468.149048 
	C621.968628,466.504333 614.180237,463.688873 607.629700,458.139984 
	C592.904785,445.666779 587.129028,429.222015 588.126343,410.496765 
	C589.255371,389.298889 599.243225,373.117767 618.430542,363.492706 
	C622.848999,361.276215 628.249329,360.581146 633.281738,360.137726 
	C639.222595,359.614288 645.446350,359.183136 651.211914,360.358154 
	C670.502930,364.289703 687.761780,381.960632 690.151306,403.114105 
	C691.431946,414.450623 691.517334,425.432129 687.386536,436.250580 
	C682.713196,448.489899 674.663574,457.666718 662.811829,463.960876 
z"/>
<path fill="#00AB69" opacity="1.000000" stroke="none" 
	d="
M1032.000000,411.054657 
	C1032.000000,415.833496 1032.000000,420.122986 1032.000000,424.763611 
	C1028.649170,424.911133 1025.874023,425.033325 1022.695190,425.173279 
	C1023.781250,431.500793 1027.047729,436.050018 1032.465942,438.721802 
	C1041.976562,443.411530 1051.647827,442.646637 1061.095825,438.399811 
	C1067.429810,435.552734 1068.163086,433.785004 1071.952637,441.687988 
	C1073.581909,445.085632 1075.796265,448.203003 1077.748779,451.445312 
	C1079.723755,454.724823 1079.249146,457.011536 1075.718994,459.186127 
	C1063.786499,466.536591 1050.673584,470.070770 1036.988647,468.826904 
	C1011.041748,466.468475 993.317322,452.150330 988.889282,424.203796 
	C986.619690,409.880066 988.737671,396.465912 996.060669,384.161835 
	C1004.751221,369.560150 1017.351562,360.562103 1034.954834,360.010040 
	C1044.093628,359.723480 1052.968628,360.308777 1061.306396,364.997681 
	C1073.037598,371.594849 1079.191772,382.036133 1081.809814,394.540558 
	C1083.874756,404.403168 1083.898804,414.546082 1081.703125,424.701050 
	C1069.468750,424.701050 1057.555786,424.701050 1045.322266,424.701050 
	C1045.322266,417.167358 1045.322266,409.931702 1045.322266,402.299316 
	C1048.092407,402.119629 1050.688599,401.951263 1053.285400,401.782837 
	C1052.577637,392.504333 1048.032959,387.229858 1040.672974,387.023621 
	C1029.844727,386.720215 1023.678650,391.540741 1022.306763,401.734009 
	C1025.263550,401.897949 1028.195557,402.060516 1032.000000,402.271454 
	C1032.000000,405.058655 1032.000000,407.812012 1032.000000,411.054657 
z"/>
<path fill="#00AB69" opacity="1.000000" stroke="none" 
	d="
M1201.016479,420.162994 
	C1208.894287,437.180420 1201.899536,458.314514 1183.835693,464.866516 
	C1162.549561,472.587311 1142.405396,469.947662 1123.461670,457.320953 
	C1119.421387,454.627869 1119.410400,452.404755 1121.987671,448.938446 
	C1125.522095,444.185120 1128.914307,439.320038 1132.207886,434.396118 
	C1133.930054,431.821289 1135.989136,431.780701 1138.011108,433.481934 
	C1144.082764,438.590637 1151.043213,441.840271 1158.829956,442.687775 
	C1162.089722,443.042542 1165.707642,442.053070 1168.862793,440.873108 
	C1171.962524,439.713867 1172.173706,434.942780 1168.976929,432.721405 
	C1165.114746,430.037689 1160.662231,428.202332 1156.460571,426.008514 
	C1148.918945,422.070831 1141.092529,418.587372 1133.914429,414.072449 
	C1127.498291,410.036865 1122.537720,397.263062 1125.305786,385.432007 
	C1128.969971,369.770386 1144.622803,359.853424 1158.442505,360.094788 
	C1166.841309,360.241425 1175.476074,360.301910 1183.534058,362.299622 
	C1190.018799,363.907227 1195.907227,368.183563 1201.766846,371.756897 
	C1202.617798,372.275818 1202.589722,375.999695 1201.666504,377.351166 
	C1198.138306,382.516083 1194.224365,387.446442 1190.090088,392.143677 
	C1189.281738,393.062195 1186.637451,393.125366 1185.201660,392.597961 
	C1179.394287,390.464569 1173.830566,387.630615 1167.958252,385.731110 
	C1165.723633,385.008301 1162.725220,385.657410 1160.417847,386.559113 
	C1159.230591,387.023132 1157.855835,389.712769 1158.222656,390.872711 
	C1158.939575,393.139832 1160.383911,395.761932 1162.316650,396.927307 
	C1165.499390,398.846344 1169.288330,399.786743 1172.860229,401.028381 
	C1181.431641,404.007660 1189.743408,407.483276 1196.360962,413.947144 
	C1198.109985,415.655487 1199.395508,417.838287 1201.016479,420.162994 
z"/>
<path fill="#00AB69" opacity="1.000000" stroke="none" 
	d="
M598.268188,260.636169 
	C589.388367,239.390671 588.655151,218.694839 601.985107,199.505676 
	C611.412659,185.934158 624.877380,178.182663 641.874329,178.053299 
	C650.088318,177.990768 658.513245,176.794144 666.253418,180.958679 
	C667.253052,181.496521 668.248413,182.042679 669.237488,182.599670 
	C681.147339,189.307144 679.377441,187.956436 672.551392,198.784592 
	C670.359680,202.261383 667.437866,205.274155 665.192749,208.722260 
	C663.538696,211.262421 661.783813,211.812119 659.517456,209.959579 
	C645.392029,198.413269 627.715515,212.603195 627.912842,228.143784 
	C628.003723,235.299362 627.315063,242.695129 631.569275,248.835037 
	C638.816467,259.294495 648.582397,261.655060 660.325134,254.882721 
	C667.059448,250.998886 666.925781,250.994492 670.446167,257.807098 
	C672.555969,261.890015 674.850647,265.906769 677.410583,269.719330 
	C679.930481,273.472382 678.424805,275.641693 675.315674,277.913757 
	C668.352112,283.002472 660.398132,285.837982 652.076233,286.751434 
	C638.474854,288.244415 625.278137,286.324005 613.686523,278.269287 
	C607.229675,273.782501 601.874146,268.192688 598.268188,260.636169 
z"/>
<path fill="#00AB69" opacity="1.000000" stroke="none" 
	d="
M770.863647,435.935852 
	C771.665161,439.116821 773.023376,441.397766 777.004333,440.703186 
	C777.854492,440.554871 779.683411,441.670898 779.814148,442.421661 
	C781.024841,449.373535 782.095032,456.358856 782.841614,463.373291 
	C782.959656,464.482300 781.519043,466.425385 780.357300,466.898743 
	C768.982056,471.533966 757.656372,471.446930 747.595459,463.997925 
	C743.891724,461.255737 740.802429,456.694031 739.225586,452.316528 
	C737.204407,446.705414 736.179504,440.448730 736.134338,434.459595 
	C735.864929,398.677307 736.001282,362.891968 736.001465,327.107635 
	C736.001465,324.978973 736.001404,322.850281 736.001404,319.477112 
	C747.612671,320.063019 758.697632,320.622345 769.909546,322.038330 
	C770.025085,358.283813 769.997742,393.672699 770.039612,429.061462 
	C770.042358,431.353241 770.576660,433.644409 770.863647,435.935852 
z"/>
<path fill="#00AB69" opacity="1.000000" stroke="none" 
	d="
M859.007751,469.110657 
	C844.940125,473.113647 829.059631,464.425323 825.043030,450.505707 
	C823.826599,446.290039 823.104553,441.775970 823.086487,437.394714 
	C822.934875,400.573792 822.999695,363.751984 822.999329,326.930420 
	C822.999268,324.939789 822.999329,322.949158 822.999329,320.351624 
	C824.831787,320.223114 826.412537,320.024231 827.994141,320.016479 
	C835.158325,319.981476 842.322815,319.997040 849.487183,320.000946 
	C856.984009,320.005035 856.992249,320.008331 856.992981,327.293579 
	C856.996216,361.116089 856.994324,394.938599 856.994812,428.761108 
	C856.994812,430.260620 857.026794,431.760681 856.996277,433.259521 
	C856.905640,437.706757 858.706848,440.353271 863.403809,441.152100 
	C864.762268,441.383179 866.515503,443.277069 866.868164,444.709045 
	C868.045471,449.489227 868.533386,454.433990 869.539856,459.262665 
	C870.844055,465.519562 870.174622,466.670776 863.776550,468.017700 
	C862.321960,468.323914 860.880981,468.694244 859.007751,469.110657 
z"/>
<path fill="#00AB69" opacity="1.000000" stroke="none" 
	d="
M468.004181,259.029419 
	C473.400818,261.218140 470.319397,266.097748 471.806885,269.535980 
	C473.195862,272.746429 473.331818,276.599518 473.493866,280.193420 
	C473.563843,281.744904 472.717987,284.318085 471.597137,284.791687 
	C460.053986,289.669373 448.754333,289.052246 438.201813,282.007294 
	C430.727142,277.017181 427.254333,269.183258 427.174194,260.794708 
	C426.793823,220.968033 427.009949,181.135666 427.026764,141.305313 
	C427.027130,140.489761 427.186096,139.674271 427.360199,138.003067 
	C434.128540,138.003067 440.884033,138.003082 447.639526,138.003067 
	C461.004272,138.003052 461.004272,138.003036 461.004272,151.421844 
	C461.004303,184.419403 461.037018,217.417007 460.967957,250.414429 
	C460.958008,255.172195 462.234924,258.566925 468.004181,259.029419 
z"/>
<path fill="#00AB69" opacity="1.000000" stroke="none" 
	d="
M508.000549,403.000000 
	C508.000549,375.237305 508.000549,347.974579 508.000549,320.083557 
	C518.781616,320.083557 529.041077,320.007629 539.294861,320.214691 
	C540.203491,320.233063 541.464050,321.963989 541.861328,323.136627 
	C542.318237,324.485413 542.010193,326.098114 542.010254,327.596191 
	C542.012512,362.224304 542.060791,396.852570 541.958435,431.480377 
	C541.942932,436.730865 542.814209,440.650940 549.119751,441.203491 
	C550.151794,441.293915 551.584656,443.321808 551.840332,444.645813 
	C553.025208,450.782806 553.997437,456.971863 554.698425,463.181488 
	C554.829346,464.341095 553.652771,466.422791 552.601746,466.822510 
	C541.078979,471.204559 529.757751,471.262482 519.219421,464.032990 
	C511.538727,458.763885 508.389832,450.808685 508.104889,441.953796 
	C507.692841,429.148010 508.000153,416.319061 508.000549,403.000000 
z"/>
<path fill="#00AB69" opacity="1.000000" stroke="none" 
	d="
M1234.004761,285.008667 
	C1229.675049,285.005737 1225.843018,284.979492 1222.011353,285.006805 
	C1218.615234,285.031036 1216.980347,283.777863 1216.993774,279.993195 
	C1217.107178,248.172577 1217.072632,216.351379 1217.035034,184.530426 
	C1217.031860,181.872208 1217.418823,179.955215 1220.737915,179.989319 
	C1228.876465,180.072952 1237.016357,180.016647 1245.471069,180.016647 
	C1246.133911,185.212433 1246.752075,190.057022 1247.210938,193.653625 
	C1250.770386,190.583618 1254.835083,186.937485 1259.049072,183.473083 
	C1267.263184,176.720245 1276.964844,177.538162 1286.592529,178.401520 
	C1289.286499,178.643112 1290.555786,180.357956 1289.935059,183.232101 
	C1288.132202,191.579330 1286.385986,199.938828 1284.489258,208.899490 
	C1282.369995,208.899490 1280.028564,209.251175 1277.828613,208.842072 
	C1264.162842,206.300827 1252.031494,216.224518 1252.041382,230.066483 
	C1252.052856,246.226883 1252.070923,262.387360 1252.028687,278.547668 
	C1252.012573,284.707031 1251.658203,284.989868 1245.498291,285.006500 
	C1241.833130,285.016418 1238.167847,285.008545 1234.004761,285.008667 
z"/>
<path fill="#003082" opacity="1.000000" stroke="none" 
	d="
M1408.266602,283.765228 
	C1417.797119,292.467712 1427.074951,300.921173 1435.166504,308.293793 
	C1427.548340,316.635925 1420.708008,324.760742 1413.191772,332.203064 
	C1402.847046,342.446106 1392.024536,352.209229 1381.317017,362.080688 
	C1379.796143,363.482941 1377.770264,364.337463 1374.956421,366.077057 
	C1374.956421,348.947968 1374.956421,333.346527 1374.956421,317.275574 
	C1372.753296,317.165375 1370.984497,317.003357 1369.215576,317.000183 
	C1356.394653,316.977203 1343.573486,317.030090 1330.752930,316.964905 
	C1325.213989,316.936737 1325.178833,316.372864 1324.849365,309.301483 
	C1324.628296,304.556030 1326.677979,303.867950 1330.739624,303.922943 
	C1345.203003,304.118927 1359.670654,303.999512 1374.751831,303.999512 
	C1374.751831,287.574768 1374.751831,271.519318 1374.751831,254.600754 
	C1382.883545,257.314087 1386.727783,263.854065 1391.991577,268.548370 
	C1397.444702,273.411621 1402.682129,278.516815 1408.266602,283.765228 
z"/>
<path fill="#00AB69" opacity="1.000000" stroke="none" 
	d="
M519.234680,179.997803 
	C528.855591,179.997314 538.000793,179.997314 547.729675,179.997314 
	C547.830078,181.888702 547.987000,183.474960 547.987793,185.061264 
	C548.002319,216.372559 547.911987,247.684357 548.094910,278.994598 
	C548.121582,283.563080 546.826050,285.247131 542.192566,285.085236 
	C534.207886,284.806335 526.202759,284.862274 518.213806,285.071045 
	C514.423584,285.170105 512.943481,284.144318 512.964417,280.019318 
	C513.124268,248.542297 513.126953,217.063721 512.969910,185.586655 
	C512.947693,181.137589 514.469238,179.422745 519.234680,179.997803 
z"/>
<path fill="#00AB69" opacity="1.000000" stroke="none" 
	d="
M918.087830,362.000183 
	C926.733459,362.000183 934.892212,362.000183 943.644775,362.000183 
	C943.769897,363.824524 943.972534,365.410919 943.973511,366.997437 
	C943.992676,398.496429 943.928528,429.995697 944.063171,461.494141 
	C944.080505,465.543701 942.965393,467.163483 938.724243,467.054138 
	C929.421448,466.814270 920.108154,466.979828 910.401001,466.979828 
	C910.401001,432.012054 910.401001,397.445190 910.401001,362.000214 
	C912.769592,362.000214 915.185242,362.000214 918.087830,362.000183 
z"/>

</svg>