<?xml version="1.0" encoding="UTF-8" standalone="no" ?>
<!DOCTYPE svg PUBLIC "-//W3C//DTD SVG 1.1//EN" "http://www.w3.org/Graphics/SVG/1.1/DTD/svg11.dtd">
<svg xmlns="http://www.w3.org/2000/svg" xmlns:xlink="http://www.w3.org/1999/xlink" version="1.1" width="500" height="500" viewBox="0 0 500 500" xml:space="preserve">
<desc>Created with Fabric.js 4.6.0</desc>
<defs>
</defs>
<g transform="matrix(1 0 0 1 499.27 250)" id="2OKi2osHmM4QRj8sgenFf"  >
<path style="stroke: rgb(0,139,105); stroke-width: 1; stroke-dasharray: none; stroke-linecap: butt; stroke-dashoffset: 0; stroke-linejoin: miter; stroke-miterlimit: 4; fill: rgb(0,171,105); fill-rule: nonzero; opacity: 1;" vector-effect="non-scaling-stroke"  transform=" translate(-0.23, -6.21)" d="M 0.46566 6.21473 C 0.46566 8.30164 0.30894 10.37383 0 12.42947 C 0.0505 10.363990000000001 0.07589 8.29231 0.07589 6.21472 C 0.07589 4.13714 0.05049 2.0654699999999995 0 0 C 0.30894 2.05564 0.46566 4.12782 0.46566 6.21473 z" stroke-linecap="round" />
</g>
<g transform="matrix(1 0 0 1 249.79 175.97)" id="0ubIkzj-cjuWUZgDoe8ty"  >
<path style="stroke: rgb(0,139,105); stroke-width: 1; stroke-dasharray: none; stroke-linecap: butt; stroke-dashoffset: 0; stroke-linejoin: miter; stroke-miterlimit: 4; fill: rgb(0,171,105); fill-rule: nonzero; opacity: 1;" vector-effect="non-scaling-stroke"  transform=" translate(0, 0)" d="M -249.29077 74.03341 C -249.29077 71.94654 -248.90102000000002 71.95586 -248.90102000000002 74.0334 C -248.90102000000002 76.11095 -248.87562000000003 78.18259 -248.82513000000003 80.24804 C -249.13406000000003 78.19244 -249.29078000000004 76.12029 -249.29078000000004 74.03341 z M -0.28795 -174.99888 C 133.89941000000002 -174.99888 243.41578 -68.55783000000001 248.62816 64.56692999999999 C 248.87649000000002 65.64602999999998 249.08279000000002 66.73002999999999 249.2464 67.81867999999999 C 249.2969 69.88414999999999 249.32228999999998 71.95581999999999 249.32228999999998 74.03339999999999 C 249.32228999999998 76.11097999999998 249.29689 78.18266999999999 249.2464 80.24814999999998 C 241.30482 133.09038999999999 132.77901 174.99888999999996 0.21206000000000813 174.99888999999996 C -132.35497999999998 174.99888999999996 -240.88084999999998 133.09031999999996 -248.82228999999998 80.24803999999996 C -248.87278999999998 78.18259999999997 -248.89817999999997 76.11094999999996 -248.89817999999997 74.03339999999996 C -248.89817999999997 74.03339999999996 -248.18418999999997 60.71271999999996 -249.32229999999996 68.28569999999996 C -246.02530999999996 -66.57004000000003 -135.72249999999997 -174.99888000000004 -0.2879499999999666 -174.99888000000004 z" stroke-linecap="round" />
</g>
</svg>